<svg xmlns="http://www.w3.org/2000/svg" width="1600" height="900" viewBox="0 0 1600 900" role="img" aria-label="Tax for Taxi Drivers insights illustration">
  <rect width="1600" height="900" fill="#ebe7db"/>
  <rect x="200" y="120" width="520" height="680" rx="12" fill="#fbfaf5" stroke="#cfc8b8" stroke-width="2" transform="rotate(-4 460 460)"/>
  <rect x="280" y="200" width="360" height="18" rx="4" fill="#d8d3c6" transform="rotate(-4 460 209)"/>
  <rect x="280" y="250" width="300" height="12" rx="3" fill="#e4dfd0" transform="rotate(-4 430 256)"/>
  <rect x="280" y="290" width="320" height="12" rx="3" fill="#e4dfd0" transform="rotate(-4 440 296)"/>
  <rect x="280" y="330" width="280" height="12" rx="3" fill="#e4dfd0" transform="rotate(-4 420 336)"/>
  <rect x="560" y="160" width="520" height="680" rx="12" fill="#fffdf8" stroke="#cfc8b8" stroke-width="2" transform="rotate(3 820 500)"/>
  <rect x="640" y="240" width="360" height="18" rx="4" fill="#ffc400" opacity="0.55" transform="rotate(3 820 249)"/>
  <rect x="640" y="300" width="300" height="12" rx="3" fill="#e4dfd0" transform="rotate(3 790 306)"/>
  <rect x="640" y="340" width="320" height="12" rx="3" fill="#e4dfd0" transform="rotate(3 800 346)"/>
  <rect x="640" y="380" width="280" height="12" rx="3" fill="#e4dfd0" transform="rotate(3 780 386)"/>
  <rect x="1100" y="280" width="320" height="420" rx="14" fill="#1c1b18"/>
  <rect x="1140" y="330" width="240" height="14" rx="3" fill="#4a4740"/>
  <rect x="1140" y="370" width="200" height="10" rx="3" fill="#3a3832"/>
  <text x="800" y="860" text-anchor="middle" font-family="system-ui,sans-serif" font-size="28" font-weight="800" letter-spacing="4" fill="#6b4e00">PLACEHOLDER — SWAP BEFORE LAUNCH</text>
</svg>
